<?xml version="1.0" encoding="utf-8"?>
<!-- Generator: Adobe Illustrator 19.0.0, SVG Export Plug-In . SVG Version: 6.00 Build 0)  -->
<!DOCTYPE svg PUBLIC "-//W3C//DTD SVG 1.1//EN" "http://www.w3.org/Graphics/SVG/1.1/DTD/svg11.dtd">
<svg version="1.1" id="Layer_1" xmlns="http://www.w3.org/2000/svg" xmlns:xlink="http://www.w3.org/1999/xlink" x="0px" y="0px"
	 viewBox="0 0 283.5 283.5" enable-background="new 0 0 283.5 283.5" xml:space="preserve">
<g id="XMLID_15_">
	
		<path id="XMLID_36_" fill="none" stroke="#000000" stroke-width="1.2756" stroke-linecap="round" stroke-linejoin="round" stroke-miterlimit="10" d="
		M1075.5,384.8l48.8-6.7c1.5-0.2,2.9,0.8,3,2.2l0.6,6.4c0.1,1.3-0.8,2.4-2.2,2.6l-48.8,6.8c-1.5,0.2-2.9-0.8-3-2.2l-0.6-6.5
		C1073.2,386.1,1074.1,385,1075.5,384.8z"/>
	
		<path id="XMLID_35_" fill="none" stroke="#000000" stroke-width="1.2756" stroke-linecap="round" stroke-linejoin="round" stroke-miterlimit="10" d="
		M1055.2,355l48.8-6.7c1.5-0.2,2.9,0.8,3,2.2l0.6,6.4c0.1,1.3-0.8,2.4-2.2,2.6l-48.8,6.8c-1.5,0.2-2.9-0.8-3-2.2l-0.6-6.5
		C1052.8,356.4,1053.8,355.2,1055.2,355z"/>
	
		<polygon id="XMLID_34_" fill="none" stroke="#000000" stroke-width="1.2756" stroke-linecap="round" stroke-linejoin="round" stroke-miterlimit="10" points="
		978.6,358.8 1149,334.1 1152.3,348.3 1188.4,355.9 1017.4,380.6 1012.6,370.4 	"/>
	
		<polyline id="XMLID_33_" fill="none" stroke="#000000" stroke-width="1.2756" stroke-linecap="round" stroke-linejoin="round" stroke-miterlimit="10" points="
		978.6,358.8 1002.9,469.9 1041.2,491.2 1167.5,474 1188.4,355.9 	"/>
	
		<line id="XMLID_32_" fill="none" stroke="#000000" stroke-width="1.2756" stroke-linecap="round" stroke-linejoin="round" stroke-miterlimit="10" x1="1041.2" y1="491.2" x2="1017.4" y2="380.6"/>
	<g id="XMLID_24_">
		<g id="XMLID_26_">
			
				<line id="XMLID_31_" fill="none" stroke="#000000" stroke-width="1.2756" stroke-linecap="round" stroke-linejoin="round" x1="549.9" y1="190.9" x2="551.9" y2="190"/>
			
				<line id="XMLID_30_" fill="none" stroke="#000000" stroke-width="1.2756" stroke-linecap="round" stroke-linejoin="round" stroke-dasharray="4.5888,4.5888" x1="556" y1="187.9" x2="570.3" y2="180.6"/>
			
				<polyline id="XMLID_29_" fill="none" stroke="#000000" stroke-width="1.2756" stroke-linecap="round" stroke-linejoin="round" points="
				572.3,179.6 574.3,178.6 575.1,180.6 			"/>
			
				<line id="XMLID_28_" fill="none" stroke="#000000" stroke-width="1.2756" stroke-linecap="round" stroke-linejoin="round" stroke-dasharray="4.5713,4.5713" x1="576.9" y1="184.8" x2="586.5" y2="208.1"/>
			
				<line id="XMLID_27_" fill="none" stroke="#000000" stroke-width="1.2756" stroke-linecap="round" stroke-linejoin="round" x1="587.3" y1="210.2" x2="588.2" y2="212.2"/>
		</g>
	</g>
	<g id="XMLID_18_">
		<g id="XMLID_20_">
			
				<line id="XMLID_23_" fill="none" stroke="#000000" stroke-width="1.2756" stroke-linecap="round" stroke-linejoin="round" x1="574.3" y1="178.6" x2="573.9" y2="176.4"/>
			
				<line id="XMLID_22_" fill="none" stroke="#000000" stroke-width="1.2756" stroke-linecap="round" stroke-linejoin="round" stroke-dasharray="4.4222,4.4222" x1="573.2" y1="172.1" x2="560.3" y2="95.8"/>
			
				<line id="XMLID_21_" fill="none" stroke="#000000" stroke-width="1.2756" stroke-linecap="round" stroke-linejoin="round" x1="559.9" y1="93.6" x2="559.6" y2="91.4"/>
		</g>
	</g>
	
		<line id="XMLID_17_" fill="none" stroke="#000000" stroke-width="1.2756" stroke-linecap="round" stroke-linejoin="round" stroke-miterlimit="10" stroke-dasharray="4.3601" x1="1152.3" y1="347.7" x2="1152.3" y2="361.1"/>
	
		<polygon id="XMLID_16_" fill="none" stroke="#000000" stroke-width="1.2756" stroke-linecap="round" stroke-linejoin="round" stroke-miterlimit="10" points="
		1022.1,383.6 1044.5,487.1 1163.9,470.9 1183.5,361.1 	"/>
</g>
<g id="XMLID_49_">
	
		<path id="XMLID_70_" fill="none" stroke="#000000" stroke-width="1.2756" stroke-linecap="round" stroke-linejoin="round" stroke-miterlimit="10" d="
		M134.5,114.8l48.8-6.7c1.5-0.2,2.9,0.8,3,2.2l0.6,6.4c0.1,1.3-0.8,2.4-2.2,2.6l-48.8,6.8c-1.5,0.2-2.9-0.8-3-2.2l-0.6-6.5
		C132.2,116.1,133.1,115,134.5,114.8z"/>
	
		<path id="XMLID_69_" fill="none" stroke="#000000" stroke-width="1.2756" stroke-linecap="round" stroke-linejoin="round" stroke-miterlimit="10" d="
		M114.2,85l48.8-6.7c1.5-0.2,2.9,0.8,3,2.2l0.6,6.4c0.1,1.3-0.8,2.4-2.2,2.6l-48.8,6.8c-1.5,0.2-2.9-0.8-3-2.2l-0.6-6.5
		C111.8,86.4,112.8,85.2,114.2,85z"/>
	
		<polygon id="XMLID_68_" fill="none" stroke="#000000" stroke-width="1.2756" stroke-linecap="round" stroke-linejoin="round" stroke-miterlimit="10" points="
		37.6,88.8 208,64.1 211.3,78.3 247.4,85.9 76.4,110.6 71.6,100.4 	"/>
	
		<polyline id="XMLID_67_" fill="none" stroke="#000000" stroke-width="1.2756" stroke-linecap="round" stroke-linejoin="round" stroke-miterlimit="10" points="
		37.6,88.8 61.9,199.9 100.2,221.2 226.5,204 247.4,85.9 	"/>
	
		<line id="XMLID_66_" fill="none" stroke="#000000" stroke-width="1.2756" stroke-linecap="round" stroke-linejoin="round" stroke-miterlimit="10" x1="100.2" y1="221.2" x2="76.4" y2="110.6"/>
	<g id="XMLID_58_">
		<g id="XMLID_60_">
			
				<line id="XMLID_65_" fill="none" stroke="#000000" stroke-width="1.2756" stroke-linecap="round" stroke-linejoin="round" x1="-391.1" y1="-79.1" x2="-389.1" y2="-80"/>
			
				<line id="XMLID_64_" fill="none" stroke="#000000" stroke-width="1.2756" stroke-linecap="round" stroke-linejoin="round" stroke-dasharray="4.5888,4.5888" x1="-385" y1="-82.1" x2="-370.7" y2="-89.4"/>
			
				<polyline id="XMLID_63_" fill="none" stroke="#000000" stroke-width="1.2756" stroke-linecap="round" stroke-linejoin="round" points="
				-368.7,-90.4 -366.7,-91.4 -365.9,-89.4 			"/>
			
				<line id="XMLID_62_" fill="none" stroke="#000000" stroke-width="1.2756" stroke-linecap="round" stroke-linejoin="round" stroke-dasharray="4.5713,4.5713" x1="-364.1" y1="-85.2" x2="-354.5" y2="-61.9"/>
			
				<line id="XMLID_61_" fill="none" stroke="#000000" stroke-width="1.2756" stroke-linecap="round" stroke-linejoin="round" x1="-353.7" y1="-59.8" x2="-352.8" y2="-57.8"/>
		</g>
	</g>
	<g id="XMLID_52_">
		<g id="XMLID_54_">
			
				<line id="XMLID_57_" fill="none" stroke="#000000" stroke-width="1.2756" stroke-linecap="round" stroke-linejoin="round" x1="-366.7" y1="-91.4" x2="-367.1" y2="-93.6"/>
			
				<line id="XMLID_56_" fill="none" stroke="#000000" stroke-width="1.2756" stroke-linecap="round" stroke-linejoin="round" stroke-dasharray="4.4222,4.4222" x1="-367.8" y1="-97.9" x2="-380.7" y2="-174.2"/>
			
				<line id="XMLID_55_" fill="none" stroke="#000000" stroke-width="1.2756" stroke-linecap="round" stroke-linejoin="round" x1="-381.1" y1="-176.4" x2="-381.4" y2="-178.6"/>
		</g>
	</g>
	
		<line id="XMLID_51_" fill="none" stroke="#000000" stroke-width="1.2756" stroke-linecap="round" stroke-linejoin="round" stroke-miterlimit="10" stroke-dasharray="4.3601" x1="211.3" y1="77.7" x2="211.3" y2="91.1"/>
	
		<polygon id="XMLID_50_" fill="none" stroke="#000000" stroke-width="1.2756" stroke-linecap="round" stroke-linejoin="round" stroke-miterlimit="10" points="
		81.1,113.6 103.5,217.1 222.9,200.9 242.5,91.1 	"/>
</g>
</svg>
