<!-- Generator: Adobe Illustrator 18.1.1, SVG Export Plug-In  -->
<svg version="1.1"
	 xmlns="http://www.w3.org/2000/svg" xmlns:xlink="http://www.w3.org/1999/xlink" xmlns:a="http://ns.adobe.com/AdobeSVGViewerExtensions/3.0/"
	 x="0px" y="0px" width="183.938px" height="172.45px" viewBox="0 0 183.938 172.45" enable-background="new 0 0 183.938 172.45"
	 xml:space="preserve">
<defs>
</defs>
<g>
	
		<path fill="none" stroke="#000000" stroke-width="1.2756" stroke-linecap="round" stroke-linejoin="round" stroke-miterlimit="10" d="
		M136.743,51.891c-1.538,0.179-2.93-1.754-3.139-3.263c-0.32-2.314,1.296-4.45,3.61-4.77c2.314-0.32,4.45,1.296,4.77,3.61
		c0.213,1.538-0.543,3.496-2.115,4.116"/>
	
		<path fill="none" stroke="#000000" stroke-width="1.2756" stroke-linecap="round" stroke-linejoin="round" stroke-miterlimit="10" d="
		M81.896,59.736c-1.615-0.413-2.9-1.766-3.143-3.52c-0.32-2.314,1.296-4.45,3.61-4.77s4.45,1.296,4.77,3.61
		c0.235,1.7-0.574,3.303-1.938,4.161"/>
	
		<path fill="none" stroke="#000000" stroke-width="1.2756" stroke-linecap="round" stroke-linejoin="round" stroke-miterlimit="10" d="
		M139.087,44.025c0,0,3.119,21.162-0.642,39.181c-2.562,12.274-8.316,23.09-20.423,24.765c-10.926,1.511-18.989-6.449-24.773-16.8
		c-9.215-16.492-12.644-39.055-12.644-39.055"/>
	
		<path fill="none" stroke="#000000" stroke-width="1.2756" stroke-linecap="round" stroke-linejoin="round" stroke-miterlimit="10" d="
		M135.992,44.453c0,0,3.128,21.816-0.874,39.213c-2.437,10.594-7.518,19.549-17.561,20.94c-8.776,1.216-15.661-5.364-20.875-14.261
		C87.48,74.641,83.485,51.717,83.485,51.717"/>
	
		<circle fill="none" stroke="#000000" stroke-width="1.2756" stroke-linecap="round" stroke-linejoin="round" stroke-miterlimit="10" cx="62.608" cy="26.138" r="4.083"/>
	
		<circle fill="none" stroke="#000000" stroke-width="1.2756" stroke-linecap="round" stroke-linejoin="round" stroke-miterlimit="10" cx="110.32" cy="17.973" r="4.083"/>
	
		<polygon fill="none" stroke="#000000" stroke-width="1.2756" stroke-linecap="round" stroke-linejoin="round" stroke-miterlimit="10" points="
		0.638,23.593 143.464,0.638 140.064,9.99 183.3,18.492 40.474,43.148 32.701,31.463 	"/>
	
		<polyline fill="none" stroke="#000000" stroke-width="1.2756" stroke-linecap="round" stroke-linejoin="round" stroke-miterlimit="10" points="
		0.638,23.593 0.638,151.549 40.474,171.812 40.474,43.148 	"/>
	
		<polyline fill="none" stroke="#000000" stroke-width="1.2756" stroke-linecap="round" stroke-linejoin="round" stroke-miterlimit="10" points="
		40.474,171.812 183.3,141.772 183.3,18.492 	"/>
	
		<polyline fill="none" stroke="#000000" stroke-width="1.2756" stroke-linecap="round" stroke-linejoin="round" stroke-miterlimit="10" stroke-dasharray="4.3601" points="
		0.638,151.549 32.701,145.173 40.474,171.812 	"/>
	
		<line fill="none" stroke="#000000" stroke-width="1.2756" stroke-linecap="round" stroke-linejoin="round" stroke-miterlimit="10" stroke-dasharray="4.3601" x1="32.701" y1="145.173" x2="32.701" y2="31.463"/>
	
		<line fill="none" stroke="#000000" stroke-width="1.2756" stroke-linecap="round" stroke-linejoin="round" stroke-miterlimit="10" x1="143.464" y1="0.638" x2="143.464" y2="10.659"/>
	
		<line fill="none" stroke="#000000" stroke-width="1.2756" stroke-linecap="round" stroke-linejoin="round" stroke-miterlimit="10" stroke-dasharray="4.3601" x1="140.064" y1="9.99" x2="140.064" y2="25.956"/>
	
		<polygon fill="none" stroke="#000000" stroke-width="1.2756" stroke-linecap="round" stroke-linejoin="round" stroke-miterlimit="10" points="
		44.057,46.469 44.569,166.14 179.322,138.055 179.322,23.301 	"/>
	
		<line fill="none" stroke="#000000" stroke-width="1.2756" stroke-linecap="round" stroke-linejoin="round" stroke-miterlimit="10" x1="60.079" y1="23.301" x2="60.079" y2="29.069"/>
	
		<line fill="none" stroke="#000000" stroke-width="1.2756" stroke-linecap="round" stroke-linejoin="round" stroke-miterlimit="10" x1="63.779" y1="22.228" x2="63.779" y2="29.774"/>
	
		<line fill="none" stroke="#000000" stroke-width="1.2756" stroke-linecap="round" stroke-linejoin="round" stroke-miterlimit="10" x1="107.678" y1="14.862" x2="107.678" y2="20.801"/>
	
		<line fill="none" stroke="#000000" stroke-width="1.2756" stroke-linecap="round" stroke-linejoin="round" stroke-miterlimit="10" x1="111.393" y1="14.038" x2="111.393" y2="21.619"/>
</g>
</svg>