<?xml version="1.0" encoding="UTF-8"?>
<svg width="284pt" version="1.1" xmlns="http://www.w3.org/2000/svg" height="284pt" viewBox="0 0 284 284" xmlns:xlink="http://www.w3.org/1999/xlink">
 <defs>
  <clipPath id="Clip0">
   <path d="M0 0 L278.7 0 L278.7 157.99 L0 157.99 L0 0 Z" transform="translate(3.39977, 63.7078)"/>
  </clipPath>
 </defs>
 <g id="Background">
  <g id="Group17" clip-path="url(#Clip0)">
   <path style="fill:none;stroke:#000000; stroke-width:1.49051; stroke-linecap:round; stroke-linejoin:round; stroke-dasharray:none;" id=" XMLID_126_" d="M4.20545 9.9346 C2.45318 10.1684 0.700909 7.94768 0.467273 6.19451 C0 3.50633 1.86909 0.935021 4.55591 0.46751 C7.24273 0 9.81273 1.87004 10.28 4.55823 C10.6305 6.31139 9.69591 8.64894 7.94364 9.46709 " transform="translate(188.951, 109.919)"/>
   <path style="fill:none;stroke:#000000; stroke-width:1.49051; stroke-linecap:round; stroke-linejoin:round; stroke-dasharray:none;" id=" XMLID_125_" d="M4.20545 10.1684 C2.33636 9.70084 0.817727 8.18143 0.467273 6.19451 C0 3.50633 1.86909 0.935021 4.55591 0.46751 C7.24273 0 9.81273 1.87004 10.28 4.55823 C10.6305 6.54515 9.69591 8.41519 8.17727 9.46709 " transform="translate(125.168, 120.438)"/>
   <path style="fill:none;stroke:#000000; stroke-width:1.49051; stroke-linecap:round; stroke-linejoin:round; stroke-dasharray:none;" id=" XMLID_124_" d="M68.105 0 C68.105 0 72.4273 24.6612 68.5723 45.816 C66.0023 60.192 59.5773 73.0485 45.4423 75.3861 C32.7091 77.4899 23.0132 68.3734 16.0041 56.5688 C4.78955 37.6346 0 11.3371 0 11.3371 " transform="translate(127.505, 110.62)"/>
   <path style="fill:none;stroke:#000000; stroke-width:1.49051; stroke-linecap:round; stroke-linejoin:round; stroke-dasharray:none;" id=" XMLID_123_" d="M61.0959 0 C61.0959 0 65.4182 25.3624 61.2127 45.816 C58.6427 58.3219 53.0355 68.8409 41.3536 70.8278 C31.1905 72.4641 22.8964 64.9839 16.5882 54.8156 C5.37364 36.6996 0 10.0515 0 10.0515 " transform="translate(130.893, 111.204)"/>
   <path style="fill:none;stroke:#000000; stroke-width:1.49051; stroke-linecap:round; stroke-linejoin:round; stroke-dasharray:none;" id=" XMLID_122_" d="M9.57909 4.79198 C9.57909 7.43862 7.43483 9.58396 4.78955 9.58396 C2.14435 9.58396 0 7.43862 0 4.79198 C0 2.14544 2.14435 0 4.78955 0 C7.43483 0 9.57909 2.14544 9.57909 4.79198 Z" transform="translate(102.623, 91.2182)"/>
   <path style="fill:none;stroke:#000000; stroke-width:1.49051; stroke-linecap:round; stroke-linejoin:round; stroke-dasharray:none;" id=" XMLID_121_" d="M9.57909 4.79198 C9.57909 7.43862 7.43483 9.58396 4.78955 9.58396 C2.14435 9.58396 0 7.43862 0 4.79198 C0 2.14544 2.14435 0 4.78955 0 C7.43483 0 9.57909 2.14544 9.57909 4.79198 Z" transform="translate(169.676, 81.7511)"/>
   <path style="fill:none;stroke:#000000; stroke-width:1.49051; stroke-linecap:round; stroke-linejoin:round; stroke-dasharray:none;" id=" XMLID_120_" d="M19.3918 31.3232 L0 134.409 L40.0686 156.499 L277.21 116.41 L253.379 22.0899 L223.707 11.2202 L213.894 0 L19.3918 31.3232 Z" transform="translate(4.14484, 64.4532)"/>
   <path style="fill:none;stroke:#000000; stroke-width:1.49051; stroke-linecap:round; stroke-linejoin:round; stroke-dasharray:none;" id=" XMLID_119_" d="M0 9.23333 L31.5409 19.2848 L40.4191 31.9076 L233.987 0 " transform="translate(23.5367, 86.5431)"/>
   <path style="fill:none;stroke:#000000; stroke-width:1.49051; stroke-linecap:round; stroke-linejoin:round; stroke-dasharray:none;" id=" XMLID_118_" d="M0 102.502 L19.7423 0 " transform="translate(44.2135, 118.451)"/>
   <path style="fill:none;stroke:#000000; stroke-width:1.49051; stroke-linecap:round; stroke-linejoin:round; stroke-dasharray:4 ; stroke-dashoffset:0;" id=" XMLID_109_" d="M0 0 L0 15.5447 " transform="translate(227.852, 75.6735)"/>
   <path style="fill:none;stroke:#000000; stroke-width:1.49051; stroke-linecap:round; stroke-linejoin:round; stroke-dasharray:none;" id=" XMLID_102_" d="M17.4059 29.6869 L0 121.67 L223.59 83.6844 L202.212 0 L17.4059 29.6869 Z" transform="translate(51.3394, 92.9713)"/>
  </g>
 </g>
</svg>
