<?xml version="1.0" encoding="utf-8"?>
<!-- Generator: Adobe Illustrator 19.0.0, SVG Export Plug-In . SVG Version: 6.00 Build 0)  -->
<!DOCTYPE svg PUBLIC "-//W3C//DTD SVG 1.1//EN" "http://www.w3.org/Graphics/SVG/1.1/DTD/svg11.dtd">
<svg version="1.1" id="Layer_1" xmlns="http://www.w3.org/2000/svg" xmlns:xlink="http://www.w3.org/1999/xlink" x="0px" y="0px"
	 viewBox="0 0 283.5 283.5" enable-background="new 0 0 283.5 283.5" xml:space="preserve">
<g id="XMLID_15_">
	
		<path id="XMLID_36_" fill="none" stroke="#000000" stroke-width="1.2756" stroke-linecap="round" stroke-linejoin="round" stroke-miterlimit="10" d="
		M1075.5,384.8l48.8-6.7c1.5-0.2,2.9,0.8,3,2.2l0.6,6.4c0.1,1.3-0.8,2.4-2.2,2.6l-48.8,6.8c-1.5,0.2-2.9-0.8-3-2.2l-0.6-6.5
		C1073.2,386.1,1074.1,385,1075.5,384.8z"/>
	
		<path id="XMLID_35_" fill="none" stroke="#000000" stroke-width="1.2756" stroke-linecap="round" stroke-linejoin="round" stroke-miterlimit="10" d="
		M1055.2,355l48.8-6.7c1.5-0.2,2.9,0.8,3,2.2l0.6,6.4c0.1,1.3-0.8,2.4-2.2,2.6l-48.8,6.8c-1.5,0.2-2.9-0.8-3-2.2l-0.6-6.5
		C1052.8,356.4,1053.8,355.2,1055.2,355z"/>
	
		<polygon id="XMLID_34_" fill="none" stroke="#000000" stroke-width="1.2756" stroke-linecap="round" stroke-linejoin="round" stroke-miterlimit="10" points="
		978.6,358.8 1149,334.1 1152.3,348.3 1188.4,355.9 1017.4,380.6 1012.6,370.4 	"/>
	
		<polyline id="XMLID_33_" fill="none" stroke="#000000" stroke-width="1.2756" stroke-linecap="round" stroke-linejoin="round" stroke-miterlimit="10" points="
		978.6,358.8 1002.9,469.9 1041.2,491.2 1167.5,474 1188.4,355.9 	"/>
	
		<line id="XMLID_32_" fill="none" stroke="#000000" stroke-width="1.2756" stroke-linecap="round" stroke-linejoin="round" stroke-miterlimit="10" x1="1041.2" y1="491.2" x2="1017.4" y2="380.6"/>
	<g id="XMLID_24_">
		<g id="XMLID_26_">
			
				<line id="XMLID_31_" fill="none" stroke="#000000" stroke-width="1.2756" stroke-linecap="round" stroke-linejoin="round" x1="549.9" y1="190.9" x2="551.9" y2="190"/>
			
				<line id="XMLID_30_" fill="none" stroke="#000000" stroke-width="1.2756" stroke-linecap="round" stroke-linejoin="round" stroke-dasharray="4.5888,4.5888" x1="556" y1="187.9" x2="570.3" y2="180.6"/>
			
				<polyline id="XMLID_29_" fill="none" stroke="#000000" stroke-width="1.2756" stroke-linecap="round" stroke-linejoin="round" points="
				572.3,179.6 574.3,178.6 575.1,180.6 			"/>
			
				<line id="XMLID_28_" fill="none" stroke="#000000" stroke-width="1.2756" stroke-linecap="round" stroke-linejoin="round" stroke-dasharray="4.5713,4.5713" x1="576.9" y1="184.8" x2="586.5" y2="208.1"/>
			
				<line id="XMLID_27_" fill="none" stroke="#000000" stroke-width="1.2756" stroke-linecap="round" stroke-linejoin="round" x1="587.3" y1="210.2" x2="588.2" y2="212.2"/>
		</g>
	</g>
	<g id="XMLID_18_">
		<g id="XMLID_20_">
			
				<line id="XMLID_23_" fill="none" stroke="#000000" stroke-width="1.2756" stroke-linecap="round" stroke-linejoin="round" x1="574.3" y1="178.6" x2="573.9" y2="176.4"/>
			
				<line id="XMLID_22_" fill="none" stroke="#000000" stroke-width="1.2756" stroke-linecap="round" stroke-linejoin="round" stroke-dasharray="4.4222,4.4222" x1="573.2" y1="172.1" x2="560.3" y2="95.8"/>
			
				<line id="XMLID_21_" fill="none" stroke="#000000" stroke-width="1.2756" stroke-linecap="round" stroke-linejoin="round" x1="559.9" y1="93.6" x2="559.6" y2="91.4"/>
		</g>
	</g>
	
		<line id="XMLID_17_" fill="none" stroke="#000000" stroke-width="1.2756" stroke-linecap="round" stroke-linejoin="round" stroke-miterlimit="10" stroke-dasharray="4.3601" x1="1152.3" y1="347.7" x2="1152.3" y2="361.1"/>
	
		<polygon id="XMLID_16_" fill="none" stroke="#000000" stroke-width="1.2756" stroke-linecap="round" stroke-linejoin="round" stroke-miterlimit="10" points="
		1022.1,383.6 1044.5,487.1 1163.9,470.9 1183.5,361.1 	"/>
</g>
<g id="XMLID_62_">
	
		<path id="XMLID_87_" fill="none" stroke="#000000" stroke-width="1.2756" stroke-linecap="round" stroke-linejoin="round" stroke-miterlimit="10" d="
		M1392.8,398.8c-1.5,0.2-3-1.7-3.2-3.2c-0.4-2.3,1.2-4.5,3.5-4.9c2.3-0.4,4.5,1.2,4.9,3.5c0.3,1.5-0.5,3.5-2,4.2"/>
	
		<path id="XMLID_86_" fill="none" stroke="#000000" stroke-width="1.2756" stroke-linecap="round" stroke-linejoin="round" stroke-miterlimit="10" d="
		M1338.2,408c-1.6-0.4-2.9-1.7-3.2-3.4c-0.4-2.3,1.2-4.5,3.5-4.9s4.5,1.2,4.9,3.5c0.3,1.7-0.5,3.3-1.8,4.2"/>
	
		<path id="XMLID_85_" fill="none" stroke="#000000" stroke-width="1.2756" stroke-linecap="round" stroke-linejoin="round" stroke-miterlimit="10" d="
		M1394.9,390.9c0,0,3.7,21.1,0.4,39.2c-2.2,12.3-7.7,23.3-19.8,25.3c-10.9,1.8-19.2-6-25.2-16.1c-9.6-16.2-13.7-38.7-13.7-38.7"/>
	
		<path id="XMLID_84_" fill="none" stroke="#000000" stroke-width="1.2756" stroke-linecap="round" stroke-linejoin="round" stroke-miterlimit="10" d="
		M1391.8,391.4c0,0,3.7,21.7,0.1,39.2c-2.2,10.7-7,19.7-17,21.4c-8.7,1.4-15.8-5-21.2-13.7c-9.6-15.5-14.2-38.3-14.2-38.3"/>
	
		<circle id="XMLID_83_" fill="none" stroke="#000000" stroke-width="1.2756" stroke-linecap="round" stroke-linejoin="round" stroke-miterlimit="10" cx="1319.4" cy="378.4" r="4.1"/>
	
		<circle id="XMLID_82_" fill="none" stroke="#000000" stroke-width="1.2756" stroke-linecap="round" stroke-linejoin="round" stroke-miterlimit="10" cx="1376.8" cy="370.3" r="4.1"/>
	
		<polygon id="XMLID_81_" fill="none" stroke="#000000" stroke-width="1.2756" stroke-linecap="round" stroke-linejoin="round" stroke-miterlimit="10" points="
		1247.6,378.2 1231,466.4 1265.3,485.3 1468.3,451 1447.9,370.3 1422.5,361 1414.1,351.4 	"/>
	
		<polyline id="XMLID_80_" fill="none" stroke="#000000" stroke-width="1.2756" stroke-linecap="round" stroke-linejoin="round" stroke-miterlimit="10" points="
		1247.6,378.2 1274.6,386.8 1282.2,397.6 1447.9,370.3 	"/>
	
		<line id="XMLID_79_" fill="none" stroke="#000000" stroke-width="1.2756" stroke-linecap="round" stroke-linejoin="round" stroke-miterlimit="10" x1="1265.3" y1="485.3" x2="1282.2" y2="397.6"/>
	<g id="XMLID_71_">
		<g id="XMLID_73_">
			
				<line id="XMLID_78_" fill="none" stroke="#000000" stroke-width="1.2756" stroke-linecap="round" stroke-linejoin="round" x1="778" y1="187.4" x2="780.2" y2="187.3"/>
			
				<line id="XMLID_77_" fill="none" stroke="#000000" stroke-width="1.2756" stroke-linecap="round" stroke-linejoin="round" stroke-dasharray="4.5283,4.5283" x1="784.7" y1="187.2" x2="800.6" y2="186.7"/>
			
				<polyline id="XMLID_76_" fill="none" stroke="#000000" stroke-width="1.2756" stroke-linecap="round" stroke-linejoin="round" points="
				802.8,186.6 805,186.5 805.8,188.6 			"/>
			
				<line id="XMLID_75_" fill="none" stroke="#000000" stroke-width="1.2756" stroke-linecap="round" stroke-linejoin="round" stroke-dasharray="5.5613,5.5613" x1="807.7" y1="193.8" x2="810.6" y2="201.6"/>
			
				<line id="XMLID_74_" fill="none" stroke="#000000" stroke-width="1.2756" stroke-linecap="round" stroke-linejoin="round" x1="811.5" y1="204.2" x2="812.3" y2="206.3"/>
		</g>
	</g>
	
		<line id="XMLID_70_" fill="none" stroke="#000000" stroke-width="1.2756" stroke-linecap="round" stroke-linejoin="round" stroke-miterlimit="10" stroke-dasharray="4.3601" x1="1422.5" y1="361" x2="1422.5" y2="374.3"/>
	<g id="XMLID_64_">
		<g id="XMLID_66_">
			
				<line id="XMLID_69_" fill="none" stroke="#000000" stroke-width="1.2756" stroke-linecap="round" stroke-linejoin="round" x1="821.6" y1="107.8" x2="821.2" y2="109.9"/>
			
				<line id="XMLID_68_" fill="none" stroke="#000000" stroke-width="1.2756" stroke-linecap="round" stroke-linejoin="round" stroke-dasharray="4.4767,4.4767" x1="820.2" y1="114.3" x2="805.9" y2="182.2"/>
			
				<line id="XMLID_67_" fill="none" stroke="#000000" stroke-width="1.2756" stroke-linecap="round" stroke-linejoin="round" x1="805.5" y1="184.4" x2="805" y2="186.5"/>
		</g>
	</g>
	
		<polygon id="XMLID_63_" fill="none" stroke="#000000" stroke-width="1.2756" stroke-linecap="round" stroke-linejoin="round" stroke-miterlimit="10" points="
		1286.3,401.2 1271.4,479.9 1462.8,447.4 1444.5,375.8 	"/>
</g>
<g id="XMLID_101_">
	
		<path id="XMLID_126_" fill="none" stroke="#000000" stroke-width="1.2756" stroke-linecap="round" stroke-linejoin="round" stroke-miterlimit="10" d="
		M185.8,122.8c-1.5,0.2-3-1.7-3.2-3.2c-0.4-2.3,1.2-4.5,3.5-4.9c2.3-0.4,4.5,1.2,4.9,3.5c0.3,1.5-0.5,3.5-2,4.2"/>
	
		<path id="XMLID_125_" fill="none" stroke="#000000" stroke-width="1.2756" stroke-linecap="round" stroke-linejoin="round" stroke-miterlimit="10" d="
		M131.2,132c-1.6-0.4-2.9-1.7-3.2-3.4c-0.4-2.3,1.2-4.5,3.5-4.9s4.5,1.2,4.9,3.5c0.3,1.7-0.5,3.3-1.8,4.2"/>
	
		<path id="XMLID_124_" fill="none" stroke="#000000" stroke-width="1.2756" stroke-linecap="round" stroke-linejoin="round" stroke-miterlimit="10" d="
		M187.9,114.9c0,0,3.7,21.1,0.4,39.2c-2.2,12.3-7.7,23.3-19.8,25.3c-10.9,1.8-19.2-6-25.2-16.1c-9.6-16.2-13.7-38.7-13.7-38.7"/>
	
		<path id="XMLID_123_" fill="none" stroke="#000000" stroke-width="1.2756" stroke-linecap="round" stroke-linejoin="round" stroke-miterlimit="10" d="
		M184.8,115.4c0,0,3.7,21.7,0.1,39.2c-2.2,10.7-7,19.7-17,21.4c-8.7,1.4-15.8-5-21.2-13.7c-9.6-15.5-14.2-38.3-14.2-38.3"/>
	
		<circle id="XMLID_122_" fill="none" stroke="#000000" stroke-width="1.2756" stroke-linecap="round" stroke-linejoin="round" stroke-miterlimit="10" cx="112.4" cy="102.4" r="4.1"/>
	
		<circle id="XMLID_121_" fill="none" stroke="#000000" stroke-width="1.2756" stroke-linecap="round" stroke-linejoin="round" stroke-miterlimit="10" cx="169.8" cy="94.3" r="4.1"/>
	
		<polygon id="XMLID_120_" fill="none" stroke="#000000" stroke-width="1.2756" stroke-linecap="round" stroke-linejoin="round" stroke-miterlimit="10" points="
		40.6,102.2 24,190.4 58.3,209.3 261.3,175 240.9,94.3 215.5,85 207.1,75.4 	"/>
	
		<polyline id="XMLID_119_" fill="none" stroke="#000000" stroke-width="1.2756" stroke-linecap="round" stroke-linejoin="round" stroke-miterlimit="10" points="
		40.6,102.2 67.6,110.8 75.2,121.6 240.9,94.3 	"/>
	
		<line id="XMLID_118_" fill="none" stroke="#000000" stroke-width="1.2756" stroke-linecap="round" stroke-linejoin="round" stroke-miterlimit="10" x1="58.3" y1="209.3" x2="75.2" y2="121.6"/>
	<g id="XMLID_110_">
		<g id="XMLID_112_">
			
				<line id="XMLID_117_" fill="none" stroke="#000000" stroke-width="1.2756" stroke-linecap="round" stroke-linejoin="round" x1="-429" y1="-88.6" x2="-426.8" y2="-88.7"/>
			
				<line id="XMLID_116_" fill="none" stroke="#000000" stroke-width="1.2756" stroke-linecap="round" stroke-linejoin="round" stroke-dasharray="4.5283,4.5283" x1="-422.3" y1="-88.8" x2="-406.4" y2="-89.3"/>
			
				<polyline id="XMLID_115_" fill="none" stroke="#000000" stroke-width="1.2756" stroke-linecap="round" stroke-linejoin="round" points="
				-404.2,-89.4 -402,-89.5 -401.2,-87.4 			"/>
			
				<line id="XMLID_114_" fill="none" stroke="#000000" stroke-width="1.2756" stroke-linecap="round" stroke-linejoin="round" stroke-dasharray="5.5613,5.5613" x1="-399.3" y1="-82.2" x2="-396.4" y2="-74.4"/>
			
				<line id="XMLID_113_" fill="none" stroke="#000000" stroke-width="1.2756" stroke-linecap="round" stroke-linejoin="round" x1="-395.5" y1="-71.8" x2="-394.7" y2="-69.7"/>
		</g>
	</g>
	
		<line id="XMLID_109_" fill="none" stroke="#000000" stroke-width="1.2756" stroke-linecap="round" stroke-linejoin="round" stroke-miterlimit="10" stroke-dasharray="4.3601" x1="215.5" y1="85" x2="215.5" y2="98.3"/>
	<g id="XMLID_103_">
		<g id="XMLID_105_">
			
				<line id="XMLID_108_" fill="none" stroke="#000000" stroke-width="1.2756" stroke-linecap="round" stroke-linejoin="round" x1="-385.4" y1="-168.2" x2="-385.8" y2="-166.1"/>
			
				<line id="XMLID_107_" fill="none" stroke="#000000" stroke-width="1.2756" stroke-linecap="round" stroke-linejoin="round" stroke-dasharray="4.4767,4.4767" x1="-386.8" y1="-161.7" x2="-401.1" y2="-93.8"/>
			
				<line id="XMLID_106_" fill="none" stroke="#000000" stroke-width="1.2756" stroke-linecap="round" stroke-linejoin="round" x1="-401.5" y1="-91.6" x2="-402" y2="-89.5"/>
		</g>
	</g>
	
		<polygon id="XMLID_102_" fill="none" stroke="#000000" stroke-width="1.2756" stroke-linecap="round" stroke-linejoin="round" stroke-miterlimit="10" points="
		79.3,125.2 64.4,203.9 255.8,171.4 237.5,99.8 	"/>
</g>
</svg>
