<?xml version="1.0" encoding="UTF-8"?>
<svg width="284pt" version="1.1" xmlns="http://www.w3.org/2000/svg" height="284pt" viewBox="0 0 284 284" xmlns:xlink="http://www.w3.org/1999/xlink">
 <defs>
  <clipPath id="Clip0">
   <path d="M0 0 L279.75 0 L279.75 262 L0 262 L0 0 Z" transform="translate(2.75015, 11.9607)"/>
  </clipPath>
  <clipPath id="Clip1">
   <path d="M0 0 L279.75 0 L279.75 262 L0 262 L0 0 Z" transform="translate(2.75015, 11.9607)"/>
  </clipPath>
 </defs>
 <g id="Background">
  <g id="Layer_1" clip-path="url(#Clip0)">
   <g id="XMLID_15_" clip-path="url(#Clip1)">
    <path style="fill:none;stroke:#000000; stroke-width:1.93868; stroke-linecap:round; stroke-linejoin:round; stroke-dasharray:none;" id=" XMLID_23_" d="M0 34.9383 L217.291 0 L212.121 14.2791 L277.81 27.1911 L60.6712 64.5599 L48.8107 46.9388 L0 34.9383 Z" transform="translate(3.71998, 12.9296)"/>
    <path style="fill:none;stroke:#000000; stroke-width:1.93868; stroke-linecap:round; stroke-linejoin:round; stroke-dasharray:none;" id=" XMLID_22_" d="M0 0 L0 194.287 L60.6712 225.124 L60.6712 29.6216 " transform="translate(3.71998, 47.8679)"/>
    <path style="fill:none;stroke:#000000; stroke-width:1.93868; stroke-linecap:round; stroke-linejoin:round; stroke-dasharray:none;" id=" XMLID_21_" d="M0 232.871 L217.139 187.3 L217.139 0 " transform="translate(64.3912, 40.1207)"/>
    <path style="fill:none;stroke:#000000; stroke-width:1.93868; stroke-linecap:round; stroke-linejoin:round; stroke-dasharray:4 ; stroke-dashoffset:0;" id=" XMLID_20_" d="M0 9.57005 L48.8107 0 L60.6712 40.4069 " transform="translate(3.71998, 232.585)"/>
    <path style="fill:none;stroke:#000000; stroke-width:1.93868; stroke-linecap:round; stroke-linejoin:round; stroke-dasharray:4 ; stroke-dashoffset:0;" id=" XMLID_19_" d="M0 172.717 L0 0 " transform="translate(52.5306, 59.8684)"/>
    <path style="fill:none;stroke:#000000; stroke-width:1.93868; stroke-linecap:round; stroke-linejoin:round; stroke-dasharray:none;" id=" XMLID_18_" d="M0 0 L0 15.1906 " transform="translate(221.011, 12.9296)"/>
    <path style="fill:none;stroke:#000000; stroke-width:1.93868; stroke-linecap:round; stroke-linejoin:round; stroke-dasharray:4 ; stroke-dashoffset:0;" id=" XMLID_17_" d="M0 0 L0 24.153 " transform="translate(215.841, 27.2087)"/>
    <path style="fill:none;stroke:#000000; stroke-width:1.93868; stroke-linecap:round; stroke-linejoin:round; stroke-dasharray:none;" id=" XMLID_16_" d="M0 33.723 L0 216.465 L203.454 173.324 L203.454 0 L0 33.723 Z" transform="translate(70.9297, 48.9312)"/>
   </g>
  </g>
 </g>
</svg>
