<?xml version="1.0" encoding="UTF-8"?>
<svg width="426pt" version="1.1" xmlns="http://www.w3.org/2000/svg" height="426pt" viewBox="0 0 426 426" xmlns:xlink="http://www.w3.org/1999/xlink">
 <defs>
  <clipPath id="Clip0">
   <path d="M0 0 L349.5 0 L349.5 423 L0 423 L0 0 Z" transform="translate(38, 0.889922)"/>
  </clipPath>
  <clipPath id="Clip1">
   <path d="M0 0 L349.5 0 L349.5 423 L0 423 L0 0 Z" transform="translate(38, 0.889922)"/>
  </clipPath>
  <clipPath id="Clip2">
   <path d="M0 0 L106.625 0 L106.625 100.457 L0 100.457 L0 0 Z" transform="translate(201.575, 269.163)"/>
  </clipPath>
  <clipPath id="Clip3">
   <path d="M0 0 L67.4134 0 L67.4134 41.5072 L0 41.5072 L0 0 Z" transform="translate(215.914, 269.163)"/>
  </clipPath>
  <clipPath id="Clip4">
   <path d="M0 0 L52.0508 0 L52.0508 67.2521 L0 67.2521 L0 0 Z" transform="translate(256.149, 296.371)"/>
  </clipPath>
  <clipPath id="Clip5">
   <path d="M0 0 L55.1233 0 L55.1233 60.0845 L0 60.0845 L0 0 Z" transform="translate(201.575, 309.536)"/>
  </clipPath>
  <clipPath id="Clip6">
   <path d="M0 0 L349.5 0 L349.5 423 L0 423 L0 0 Z" transform="translate(38, 0.889922)"/>
  </clipPath>
 </defs>
 <g id="Background">
  <g id="Layer_1" clip-path="url(#Clip0)">
   <g id="XMLID_219_" clip-path="url(#Clip1)">
    <g id="XMLID_230_" clip-path="url(#Clip2)">
     <g id="XMLID_245_" clip-path="url(#Clip3)">
      <path style="fill:none;stroke:#000000; stroke-width:1.86613; stroke-linecap:round; stroke-linejoin:round; stroke-dasharray:none;" id=" XMLID_251_" d="M17.1183 7.75272 C17.1183 7.75272 44.3321 1.60906 44.9173 1.60906 C52.6718 0 58.6705 7.75272 60.7188 10.532 C61.1578 11.1171 61.8893 11.2634 62.3283 10.8246 L63.4987 10.0932 C64.3766 9.50806 65.5471 10.2394 65.4008 11.2634 L62.3283 30.7183 C62.1819 31.3035 61.743 31.7423 61.1578 31.7423 L40.3817 31.0109 C39.2112 31.0109 38.7723 29.5481 39.6501 28.8167 L40.8206 27.7928 C41.2596 27.354 41.4059 26.6226 40.9669 26.1837 C26.0433 7.46017 21.0687 7.75272 21.0687 7.75272 C20.6298 7.75272 20.1908 7.60645 19.7519 7.60645 C11.4122 7.31389 6.14504 12.7262 4.97456 16.2368 C4.97456 16.3831 0.14631 31.7423 0.14631 31.7423 C0 32.3274 0.292621 33.0588 0.877863 33.2051 L21.5076 39.495 C22.0929 39.6413 22.8244 39.3487 22.9707 38.7636 L31.4567 15.5054 " transform="translate(216.847, 270.096)"/>
      <path style="fill:none;stroke:#000000; stroke-width:1.86613; stroke-linecap:round; stroke-linejoin:round; stroke-dasharray:none;" id=" XMLID_250_" d="M1.60942 0 L0 5.99739 " transform="translate(224.894, 280.775)"/>
      <path style="fill:none;stroke:#000000; stroke-width:1.86613; stroke-linecap:round; stroke-linejoin:round; stroke-dasharray:none;" id=" XMLID_249_" d="M1.75573 0 L0 7.75272 " transform="translate(229.868, 278.288)"/>
      <path style="fill:none;stroke:#000000; stroke-width:1.86613; stroke-linecap:round; stroke-linejoin:round; stroke-dasharray:none;" id=" XMLID_248_" d="M1.31679 0 L0 6.87506 " transform="translate(234.55, 277.849)"/>
      <path style="fill:none;stroke:#000000; stroke-width:1.86613; stroke-linecap:round; stroke-linejoin:round; stroke-dasharray:none;" id=" XMLID_247_" d="M0.877863 0 L0 4.97345 " transform="translate(239.232, 278.727)"/>
      <path style="fill:none;stroke:#000000; stroke-width:1.86613; stroke-linecap:round; stroke-linejoin:round; stroke-dasharray:none;" id=" XMLID_246_" d="M0.14631 0 L0 1.75533 " transform="translate(243.622, 281.36)"/>
     </g>
     <g id="XMLID_238_" clip-path="url(#Clip4)">
      <path style="fill:none;stroke:#000000; stroke-width:1.86613; stroke-linecap:round; stroke-linejoin:round; stroke-dasharray:none;" id=" XMLID_244_" d="M46.2341 28.6705 C46.2341 28.6705 34.383 53.8302 34.0903 54.4153 C30.5789 61.583 20.7761 61.583 17.4109 61.2904 C16.6794 61.2904 16.2405 61.7292 16.0942 62.4606 L15.9478 63.9234 C15.8015 64.9474 14.631 65.3862 13.8995 64.6548 L0.438931 50.1733 C0 49.7345 0 49.0031 0.438931 48.5642 L13.7532 32.7662 C14.4847 31.8886 15.8015 32.3274 15.9478 33.4976 L15.9478 34.9604 C15.9478 35.5455 16.5331 36.1306 17.1183 36.1306 C40.9669 35.8381 43.8931 31.8886 43.8931 31.8886 C44.1858 31.596 44.4784 31.3035 44.771 31.0109 C50.1845 24.5747 49.1603 17.1145 47.112 14.0427 C47.112 13.8964 37.8944 0.731389 37.8944 0.731389 C37.4555 0.146278 36.7239 0 36.285 0.438833 L18.5814 12.7262 C17.9962 13.165 17.8499 13.7501 18.2888 14.3352 L31.4567 35.253 " transform="translate(257.082, 297.304)"/>
      <path style="fill:none;stroke:#000000; stroke-width:1.86613; stroke-linecap:round; stroke-linejoin:round; stroke-dasharray:none;" id=" XMLID_243_" d="M3.65776 4.97345 L0 0 " transform="translate(301.999, 313.395)"/>
      <path style="fill:none;stroke:#000000; stroke-width:1.86613; stroke-linecap:round; stroke-linejoin:round; stroke-dasharray:none;" id=" XMLID_242_" d="M4.97456 6.14367 L0 0 " transform="translate(299.512, 317.637)"/>
      <path style="fill:none;stroke:#000000; stroke-width:1.86613; stroke-linecap:round; stroke-linejoin:round; stroke-dasharray:none;" id=" XMLID_241_" d="M4.68193 5.266 L0 0 " transform="translate(297.61, 322.171)"/>
      <path style="fill:none;stroke:#000000; stroke-width:1.86613; stroke-linecap:round; stroke-linejoin:round; stroke-dasharray:none;" id=" XMLID_240_" d="M3.36514 3.80322 L0 0 " transform="translate(295.562, 326.413)"/>
      <path style="fill:none;stroke:#000000; stroke-width:1.86613; stroke-linecap:round; stroke-linejoin:round; stroke-dasharray:none;" id=" XMLID_239_" d="M1.17048 1.17022 L0 0 " transform="translate(293.367, 330.363)"/>
     </g>
     <g id="XMLID_231_" clip-path="url(#Clip5)">
      <path style="fill:none;stroke:#000000; stroke-width:1.86613; stroke-linecap:round; stroke-linejoin:round; stroke-dasharray:none;" id=" XMLID_237_" d="M22.9707 50.7584 C22.9707 50.7584 5.26718 29.2556 4.97456 28.8167 C0 22.6731 4.243 13.7501 5.85242 10.6783 C6.14504 10.0932 5.99873 9.36178 5.41349 9.06922 L4.243 8.33784 C3.36514 7.75272 3.51145 6.43622 4.53562 6.14367 L23.4097 0.146278 C23.9949 0 24.5802 0.292556 24.8728 0.731389 L33.5051 19.455 C33.944 20.4789 32.9199 21.5028 31.8957 21.064 L30.5789 20.4789 C29.9936 20.1863 29.2621 20.4789 28.9695 21.064 C19.0204 42.7131 21.3613 47.1015 21.3613 47.1015 C21.5076 47.5403 21.6539 47.9791 21.8003 48.2717 C25.3117 55.8781 32.4809 58.2186 36.1387 57.6335 C36.285 57.6335 52.0865 55.0005 52.0865 55.0005 C52.6718 54.8542 53.257 54.2691 53.1107 53.5377 L49.4529 32.3274 C49.3066 31.7423 48.7214 31.3035 48.1361 31.3035 L23.556 34.229 " transform="translate(202.508, 310.469)"/>
      <path style="fill:none;stroke:#000000; stroke-width:1.86613; stroke-linecap:round; stroke-linejoin:round; stroke-dasharray:none;" id=" XMLID_236_" d="M0 1.3165 L6.14504 0 " transform="translate(231.331, 365.323)"/>
      <path style="fill:none;stroke:#000000; stroke-width:1.86613; stroke-linecap:round; stroke-linejoin:round; stroke-dasharray:none;" id=" XMLID_235_" d="M0 1.90161 L7.75445 0 " transform="translate(226.942, 361.227)"/>
      <path style="fill:none;stroke:#000000; stroke-width:1.86613; stroke-linecap:round; stroke-linejoin:round; stroke-dasharray:none;" id=" XMLID_234_" d="M0 2.04789 L6.73028 0 " transform="translate(224.601, 357.571)"/>
      <path style="fill:none;stroke:#000000; stroke-width:1.86613; stroke-linecap:round; stroke-linejoin:round; stroke-dasharray:none;" id=" XMLID_233_" d="M0 1.46278 L4.97456 0 " transform="translate(223.431, 353.914)"/>
      <path style="fill:none;stroke:#000000; stroke-width:1.86613; stroke-linecap:round; stroke-linejoin:round; stroke-dasharray:none;" id=" XMLID_232_" d="M0 0.585111 L1.60942 0 " transform="translate(224.162, 350.257)"/>
     </g>
    </g>
    <g id="XMLID_220_" clip-path="url(#Clip6)">
     <path style="fill:none;stroke:#000000; stroke-width:1.86613; stroke-linecap:round; stroke-linejoin:round; stroke-dasharray:4 ; stroke-dashoffset:0;" id=" XMLID_229_" d="M258.97 60.8516 L195.617 0 L0 34.0827 L39.5038 107.66 " transform="translate(99.7983, 160.242)"/>
     <path style="fill:none;stroke:#000000; stroke-width:1.86613; stroke-linecap:round; stroke-linejoin:round; stroke-dasharray:none;" id=" XMLID_228_" d="M0 46.8089 L219.466 0 " transform="translate(139.302, 221.093)"/>
     <path style="fill:none;stroke:#000000; stroke-width:1.86613; stroke-linecap:round; stroke-linejoin:round; stroke-dasharray:none;" id=" XMLID_227_" d="M2.63359 47.6866 L0.877863 35.3992 C0 28.6705 4.68193 22.6731 11.4122 21.7954 L192.106 0.731389 C198.543 0 204.396 4.38833 205.42 10.8246 L207.029 20.9177 " transform="translate(78.7296, 1.82288)"/>
     <path style="fill:none;stroke:#000000; stroke-width:1.86613; stroke-linecap:round; stroke-linejoin:round; stroke-dasharray:none;" id=" XMLID_226_" d="M42.43 0 L60.8652 144.815 L0 97.5673 L25.3117 164.563 L100.369 218.393 L111.635 373.447 L72.57 298.846 L67.1565 194.55 " transform="translate(38.9332, 49.5095)"/>
     <path style="fill:none;stroke:#000000; stroke-width:1.86613; stroke-linecap:round; stroke-linejoin:round; stroke-dasharray:4 ; stroke-dashoffset:0;" id=" XMLID_225_" d="M204.249 0 L0 26.7688 " transform="translate(81.3632, 22.7406)"/>
     <path style="fill:none;stroke:#000000; stroke-width:1.86613; stroke-linecap:round; stroke-linejoin:round; stroke-dasharray:none;" id=" XMLID_224_" d="M0 400.216 L198.543 351.944 L208.2 198.353 L235.999 109.123 L186.253 68.1655 L144.847 137.501 L135.045 0 " transform="translate(150.568, 22.7406)"/>
     <path style="fill:none;stroke:#000000; stroke-width:1.86613; stroke-linecap:round; stroke-linejoin:round; stroke-dasharray:4 ; stroke-dashoffset:0;" id=" XMLID_223_" d="M0 0 L0 74.4554 " transform="translate(295.415, 160.242)"/>
     <path style="fill:none;stroke:#000000; stroke-width:1.86613; stroke-linecap:round; stroke-linejoin:round; stroke-dasharray:none;" id=" XMLID_222_" d="M0 43.4445 L10.9733 184.603 L197.519 139.695 L205.859 0 L0 43.4445 Z" transform="translate(146.179, 230.163)"/>
     <path style="fill:none;stroke:#000000; stroke-width:1.86613; stroke-linecap:round; stroke-linejoin:round; stroke-dasharray:none;" id=" XMLID_221_" d="M0 0 L5.26718 97.7136 L31.4567 145.985 L21.9466 23.1119 L10.388 6.43622 " transform="translate(111.796, 249.179)"/>
    </g>
   </g>
  </g>
 </g>
</svg>
