<?xml version="1.0" encoding="utf-8"?>
<!-- Generator: Adobe Illustrator 18.1.1, SVG Export Plug-In . SVG Version: 6.00 Build 0)  -->
<!DOCTYPE svg PUBLIC "-//W3C//DTD SVG 1.1//EN" "http://www.w3.org/Graphics/SVG/1.1/DTD/svg11.dtd">
<svg version="1.1" id="Layer_1" xmlns="http://www.w3.org/2000/svg" xmlns:xlink="http://www.w3.org/1999/xlink" x="0px" y="0px"
	 viewBox="0 0 841.9 595.3" enable-background="new 0 0 841.9 595.3" xml:space="preserve">
<g>
	<g>
		<defs>
			<rect id="SVGID_1_" x="51.6" y="222.9" width="739.3" height="157.3"/>
		</defs>
		<clipPath id="SVGID_2_">
			<use xlink:href="#SVGID_1_"  overflow="visible"/>
		</clipPath>
		<g clip-path="url(#SVGID_2_)">
			<path fill="#231F20" d="M790.3,379.7H51.6V222.9h739.3v156.8H790.3z M60.5,371.3h721.4V231.9H60.5V371.3z"/>
		</g>
	</g>
</g>
<g>
	<rect x="364.6" y="260.8" fill="#B29883" width="8.9" height="81"/>
</g>
<g>
	<defs>
		<rect id="SVGID_3_" x="51.6" y="222.9" width="739.3" height="157.3"/>
	</defs>
	<clipPath id="SVGID_4_">
		<use xlink:href="#SVGID_3_"  overflow="visible"/>
	</clipPath>
	<g clip-path="url(#SVGID_4_)">
		<path fill="#231F20" d="M741.9,300.8h-15.3v4.2h10v15.8c-1.6,0.5-4.2,1.6-8.4,1.6c-11,0-18.4-7.4-18.4-20.5s7.9-20.5,19.5-20.5
			c4.7,0,7.4,1.1,10,2.1l1.6-4.2c-2.6-1.1-6.3-2.1-11-2.1c-15.3,0-24.7,10.5-24.7,25.3c0,10.5,4.7,24.7,23.7,24.7
			c6.3,0,11-1.6,13.7-2.6v-23.7H741.9z M696.1,277.1h-5.3v21c0,7.9,0,13.7,0.5,20l0,0c-2.1-5.3-5.3-10-8.4-15.8l-15.8-25.8h-5.8V325
			h4.7v-21.6c0-8.4,0-14.2-0.5-20.5l0,0c2.1,5.3,5.3,11,8.9,16.3l15.3,25.8h5.3v-47.9H696.1z M645.6,326.1h5.3v-48.4h-5.3V326.1z
			 M636.2,300.8h-15.3v4.2h10v15.8c-1.6,0.5-4.2,1.6-8.4,1.6c-11,0-18.4-7.4-18.4-20.5s7.9-20.5,19.5-20.5c4.7,0,7.4,1.1,10,2.1
			l1.6-4.2c-2.6-1.1-6.3-2.1-11-2.1c-15.3,0-24.7,10.5-24.7,25.3c0,10.5,4.7,24.7,23.7,24.7c6.3,0,11-1.6,13.7-2.6v-23.7H636.2z
			 M567.7,306.1l4.7-14.7c1.1-3.2,1.6-6.3,2.6-8.9l0,0c0.5,2.6,1.6,5.8,2.6,9.5l4.7,14.2H567.7z M578.8,277.1h-6.3l-16.3,48.4h5.3
			l5.3-15.8h16.8l5.3,15.8h5.8L578.8,277.1z M536.2,298.2l17.4-20.5h-6.3l-14.7,18.4c-1.1,1.6-2.6,3.2-3.7,5.3l0,0v-23.7h-5.3v48.4
			h5.3v-18.9l4.7-5.3l15.8,24.2h6.3L536.2,298.2z M514.1,320.3c-2.6,1.1-6.3,2.1-10,2.1c-11.6,0-18.4-7.4-18.4-20.5s7.4-21,18.4-21
			c3.7,0,6.8,1.1,8.9,2.1l1.6-4.2c-1.6-0.5-4.7-2.1-10.5-2.1c-14.2,0-24.2,10-24.2,25.3c0,16.3,10,24.7,22.6,24.7
			c5.8,0,10-1.1,12.1-2.1L514.1,320.3z M449.4,306.1l4.7-14.7c1.1-3.2,1.6-6.3,2.6-8.9l0,0c0.5,2.6,1.6,5.8,2.6,9.5l4.7,14.2H449.4z
			 M459.9,277.1h-6.3l-16.3,48.4h5.3l5.3-15.8h16.8l5.3,15.8h5.8L459.9,277.1z M410.4,281.9c1.1,0,3.2-0.5,5.8-0.5
			c6.8,0,11.6,3.2,11.6,10s-4.7,11-12.1,11c-2.1,0-3.7,0-5.3-0.5L410.4,281.9L410.4,281.9z M405.2,326.1h5.3v-20
			c1.6,0.5,3.2,0.5,4.7,0.5c8.4,0,17.9-4.2,17.9-15.3c0-3.7-1.1-13.7-16.8-13.7c-4.7,0-8.4,0.5-11,1.1L405.2,326.1L405.2,326.1z
			 M303.1,299.2v-14.7c0.5,0,2.1-0.5,4.2-0.5c3.7,0,8.4,1.1,8.4,7.4c0,4.7-3.2,7.9-8.4,7.9H303.1z M316.8,302.4
			c4.7-1.6,8.4-6.3,8.4-12.1c0-13.2-12.6-13.7-18.9-13.7c-4.7,0-9.5,0.5-12.6,1.1v48.4h9.5v-20h3.2c4.7,0,6.3,2.1,7.9,8.4
			c1.1,5.8,2.6,10,3.2,11.6h9.5c-1.1-2.1-2.1-7.9-3.7-13.7C322,307.6,319.9,304,316.8,302.4L316.8,302.4z M286.2,318.2h-17.9v-13.7
			h15.8v-7.9h-15.8v-12.1h16.8v-7.9h-26.3v48.9h27.4V318.2z M253.6,276.6h-33.7v8.4H232v41h9.5v-41h12.1L253.6,276.6L253.6,276.6z
			 M194.2,299.2v-14.7c0.5,0,2.1-0.5,4.2-0.5c3.7,0,8.4,1.1,8.4,7.4c0,4.7-3.2,7.9-8.4,7.9H194.2z M207.3,302.4
			c4.7-1.6,8.4-6.3,8.4-12.1c0-13.2-12.6-13.7-18.9-13.7c-4.7,0-9.5,0.5-12.6,1.1v48.4h9.5v-20h3.2c4.2,0,6.3,2.1,7.9,8.4
			c1.1,5.8,2.1,10,3.2,11.6h9.5c-1.1-2.1-2.1-7.9-3.7-13.7C212.6,307.6,211,304,207.3,302.4L207.3,302.4z M156.8,284
			c7.4,0,10.5,8.4,10.5,17.4c0,10-3.7,17.9-10.5,17.9c-6.8,0-10.5-7.9-10.5-17.4S149.4,284,156.8,284 M157.3,276.1
			c-12.6,0-21,10.5-21,25.3c0,14.2,7.4,25.3,20.5,25.3c12.1,0,21-8.9,21-25.8C177.3,287.6,170.5,276.1,157.3,276.1 M109.4,284
			c1.1,0,2.1-0.5,4.2-0.5c5.3,0,8.4,2.6,8.4,7.9s-3.7,8.4-9.5,8.4c-1.6,0-2.6,0-3.2,0V284z M100.5,326.1h9.5v-18.4
			c1.1,0,2.1,0,3.7,0c7.4,0,18.4-3.2,18.4-16.3c0-4.7-1.6-8.4-4.7-11c-3.2-2.6-7.9-3.7-14.2-3.7c-5.3,0-9.5,0.5-12.6,1.1V326.1z"/>
	</g>
</g>
</svg>
