<?xml version="1.0" encoding="utf-8"?>
<!-- Generator: Adobe Illustrator 19.0.0, SVG Export Plug-In . SVG Version: 6.00 Build 0)  -->
<!DOCTYPE svg PUBLIC "-//W3C//DTD SVG 1.1//EN" "http://www.w3.org/Graphics/SVG/1.1/DTD/svg11.dtd">
<svg version="1.1" id="Layer_1" xmlns="http://www.w3.org/2000/svg" xmlns:xlink="http://www.w3.org/1999/xlink" x="0px" y="0px"
	 viewBox="0 0 425.2 425.2" enable-background="new 0 0 425.2 425.2" xml:space="preserve">
<g>
	
		<path fill="none" stroke="#000000" stroke-width="1.2756" stroke-linecap="round" stroke-linejoin="round" stroke-miterlimit="10" d="
		M325.2,145.9l-52.1-31.2l-118.9,56.2l51.6,42.2l-104.6-44.8l6.2,99.7l98.4,54.6V213.1L325.2,145.9c-1.4,0.8,0,95.6,0,95.6
		L289,266.3l-83.1,56.3"/>
	
		<polygon fill="none" stroke="#000000" stroke-width="1.2756" stroke-linecap="round" stroke-linejoin="round" stroke-miterlimit="10" points="
		101.3,168.2 150.3,163 267.9,103.9 220.8,111.7 	"/>
	
		<line fill="none" stroke="#000000" stroke-width="1.2756" stroke-linecap="round" stroke-linejoin="round" stroke-miterlimit="10" x1="163.4" y1="156.5" x2="175.8" y2="160.7"/>
	
		<line fill="none" stroke="#000000" stroke-width="1.2756" stroke-linecap="round" stroke-linejoin="round" stroke-miterlimit="10" x1="205.6" y1="136.1" x2="219.9" y2="139.8"/>
	
		<line fill="none" stroke="#000000" stroke-width="1.2756" stroke-linecap="round" stroke-linejoin="round" stroke-miterlimit="10" x1="238.3" y1="118.8" x2="255.5" y2="123"/>
	
		<polygon fill="none" stroke="#000000" stroke-width="1.2756" stroke-linecap="round" stroke-linejoin="round" stroke-miterlimit="10" points="
		105.9,175.4 111.8,265.2 201.2,314.3 201.2,216 	"/>
	
		<polygon fill="none" stroke="#000000" stroke-width="1.2756" stroke-linecap="round" stroke-linejoin="round" stroke-miterlimit="10" points="
		320.2,239.3 210.5,313.4 210.5,215.9 320.2,154.1 	"/>
</g>
</svg>
