<?xml version="1.0" encoding="UTF-8"?>
<svg width="284pt" version="1.1" xmlns="http://www.w3.org/2000/svg" height="284pt" viewBox="0 0 284 284" xmlns:xlink="http://www.w3.org/1999/xlink">
 <defs>
  <clipPath id="Clip0">
   <path d="M0 0 L280.495 0 L280.495 210.741 L0 210.741 L0 0 Z" transform="translate(1.8263, 32.2055)"/>
  </clipPath>
 </defs>
 <g id="Background">
  <g id="Group12" clip-path="url(#Clip0)">
   <path style="fill:none;stroke:#000000; stroke-width:1.69654; stroke-linecap:round; stroke-linejoin:round; stroke-dasharray:none;" id=" XMLID_70_" d="M3.05643 9.1814 L67.906 0.266128 C69.8993 0 71.7597 1.33064 71.8926 3.19353 L72.69 11.7096 C72.8228 13.4394 71.6269 14.9031 69.7664 15.1693 L4.91687 24.2176 C2.92354 24.4837 1.06311 23.1531 0.930219 21.2902 L0.132888 12.6411 C0 10.9112 1.196 9.44753 3.05643 9.1814 Z" transform="translate(128.386, 91.3361)"/>
   <path style="fill:none;stroke:#000000; stroke-width:1.69654; stroke-linecap:round; stroke-linejoin:round; stroke-dasharray:none;" id=" XMLID_69_" d="M3.18932 9.1814 L68.0389 0.266128 C70.0322 0 71.8926 1.33064 72.0255 3.19353 L72.8228 11.7096 C72.9557 13.4394 71.7597 14.9031 69.8993 15.1693 L5.04976 24.2176 C3.05643 24.4837 1.196 23.1531 1.06311 21.2902 L0.265777 12.6411 C0 11.0443 1.32888 9.44753 3.18932 9.1814 Z" transform="translate(101.277, 51.6831)"/>
   <path style="fill:none;stroke:#000000; stroke-width:1.69654; stroke-linecap:round; stroke-linejoin:round; stroke-dasharray:none;" id=" XMLID_68_" d="M0 32.8668 L226.442 0 L230.827 18.8951 L278.8 29.0079 L51.5607 61.8747 L45.1821 48.3022 L0 32.8668 Z" transform="translate(2.67387, 33.0542)"/>
   <path style="fill:none;stroke:#000000; stroke-width:1.69654; stroke-linecap:round; stroke-linejoin:round; stroke-dasharray:none;" id=" XMLID_67_" d="M0 3.85885 L32.2919 151.693 L83.1881 180.035 L251.026 157.148 L278.8 0 " transform="translate(2.67387, 62.0621)"/>
   <path style="fill:none;stroke:#000000; stroke-width:1.69654; stroke-linecap:round; stroke-linejoin:round; stroke-dasharray:none;" id=" XMLID_66_" d="M31.6274 147.169 L0 0 " transform="translate(54.2346, 94.9288)"/>
   <path style="fill:none;stroke:#000000; stroke-width:1.69654; stroke-linecap:round; stroke-linejoin:round; stroke-dasharray:4 ; stroke-dashoffset:0;" id=" XMLID_51_" d="M0 0 L0 17.8305 " transform="translate(233.501, 51.1509)"/>
   <path style="fill:none;stroke:#000000; stroke-width:1.69654; stroke-linecap:round; stroke-linejoin:round; stroke-dasharray:none;" id=" XMLID_50_" d="M0 29.9394 L29.767 167.66 L188.436 146.104 L214.482 0 L0 29.9394 Z" transform="translate(60.4803, 68.9814)"/>
  </g>
 </g>
</svg>
