<?xml version="1.0" encoding="utf-8"?>
<!-- Generator: Adobe Illustrator 19.0.0, SVG Export Plug-In . SVG Version: 6.00 Build 0)  -->
<!DOCTYPE svg PUBLIC "-//W3C//DTD SVG 1.1//EN" "http://www.w3.org/Graphics/SVG/1.1/DTD/svg11.dtd">
<svg version="1.1" id="Layer_1" xmlns="http://www.w3.org/2000/svg" xmlns:xlink="http://www.w3.org/1999/xlink" x="0px" y="0px"
	 viewBox="0 0 425.2 425.2" enable-background="new 0 0 425.2 425.2" xml:space="preserve">
<g id="XMLID_81_">
	<g id="XMLID_83_">
		
			<polygon id="XMLID_121_" fill="none" stroke="#000000" stroke-width="1.2756" stroke-linecap="round" stroke-linejoin="round" stroke-miterlimit="10" points="
			98.4,210.1 108.7,308.6 219.5,357.4 287.7,301.7 287.7,203.2 217.7,244.4 		"/>
		
			<line id="XMLID_120_" fill="none" stroke="#000000" stroke-width="1.2756" stroke-linecap="round" stroke-linejoin="round" stroke-miterlimit="10" x1="217.7" y1="244.4" x2="219.5" y2="357.4"/>
		
			<line id="XMLID_119_" fill="none" stroke="#000000" stroke-width="1.2756" stroke-linecap="round" stroke-linejoin="round" stroke-miterlimit="10" stroke-dasharray="4.3601" x1="177.9" y1="177.7" x2="179.1" y2="233.3"/>
		
			<line id="XMLID_118_" fill="none" stroke="#000000" stroke-width="1.2756" stroke-linecap="round" stroke-linejoin="round" stroke-miterlimit="10" x1="183.9" y1="161" x2="177.9" y2="177.7"/>
		
			<polyline id="XMLID_117_" fill="none" stroke="#000000" stroke-width="1.2756" stroke-linecap="round" stroke-linejoin="round" stroke-miterlimit="10" stroke-dasharray="4.3601" points="
			315,91.7 211.5,84.4 183.9,161 		"/>
		
			<path id="XMLID_116_" fill="none" stroke="#000000" stroke-width="1.2756" stroke-linecap="round" stroke-linejoin="round" stroke-miterlimit="10" d="
			M287.7,203.2l9.8-25.5c-3.4-31.4,14.9-79.4,17.5-86"/>
		
			<line id="XMLID_115_" fill="none" stroke="#000000" stroke-width="1.2756" stroke-linecap="round" stroke-linejoin="round" stroke-miterlimit="10" stroke-dasharray="4.3601" x1="177.9" y1="177.7" x2="287.7" y2="203.2"/>
		
			<line id="XMLID_114_" fill="none" stroke="#000000" stroke-width="1.2756" stroke-linecap="round" stroke-linejoin="round" stroke-miterlimit="10" x1="98.4" y1="210.1" x2="177.9" y2="177.7"/>
		
			<path id="XMLID_87_" fill="none" stroke="#000000" stroke-width="1.2756" stroke-linecap="round" stroke-linejoin="round" stroke-miterlimit="10" d="
			M297.5,177.7l30.3-86l-6.9-12.4l-118.1-8.4c0,0-27.7,49.7-18.8,90.1"/>
		
			<line id="XMLID_86_" fill="none" stroke="#000000" stroke-width="1.2756" stroke-linecap="round" stroke-linejoin="round" stroke-miterlimit="10" stroke-dasharray="4.3601" x1="211.5" y1="84.4" x2="202.7" y2="70.9"/>
		
			<polygon id="XMLID_85_" fill="none" stroke="#000000" stroke-width="1.2756" stroke-linecap="round" stroke-linejoin="round" stroke-miterlimit="10" points="
			103.8,216.3 113.2,304.9 214.7,349.6 211.8,248.3 		"/>
		
			<polygon id="XMLID_84_" fill="none" stroke="#000000" stroke-width="1.2756" stroke-linecap="round" stroke-linejoin="round" stroke-miterlimit="10" points="
			222.7,246.6 224.5,347.8 283.5,299.1 283.5,211.6 		"/>
	</g>
	
		<line id="XMLID_82_" fill="none" stroke="#000000" stroke-width="1.2756" stroke-linecap="round" stroke-linejoin="round" stroke-miterlimit="10" x1="315" y1="91.7" x2="320.8" y2="79.3"/>
</g>
</svg>
