<?xml version="1.0" encoding="utf-8"?>
<!-- Generator: Adobe Illustrator 19.0.0, SVG Export Plug-In . SVG Version: 6.00 Build 0)  -->
<!DOCTYPE svg PUBLIC "-//W3C//DTD SVG 1.1//EN" "http://www.w3.org/Graphics/SVG/1.1/DTD/svg11.dtd">
<svg version="1.1" id="Layer_1" xmlns="http://www.w3.org/2000/svg" xmlns:xlink="http://www.w3.org/1999/xlink" x="0px" y="0px"
	 viewBox="0 0 283.5 283.5" enable-background="new 0 0 283.5 283.5" xml:space="preserve">
<g id="XMLID_15_">
	
		<path id="XMLID_37_" fill="none" stroke="#000000" stroke-width="1.2756" stroke-linecap="round" stroke-linejoin="round" stroke-miterlimit="10" d="
		M133.4,114.8c2.2,0,3.5,2.5,3.5,4.1c0,2.3-1.9,4.2-4.2,4.2c-2.3,0-4.2-1.9-4.2-4.2c0-1.6,0.9-3.2,1.7-3.6"/>
	
		<path id="XMLID_36_" fill="none" stroke="#000000" stroke-width="1.2756" stroke-linecap="round" stroke-linejoin="round" stroke-miterlimit="10" d="
		M185.4,104.5c1.5,0.6,2.6,2.1,2.6,3.9c0,2.3-1.9,4.2-4.2,4.2s-4.2-1.9-4.2-4.2c0-1.7,1-3.2,2.5-3.9"/>
	
		<path id="XMLID_35_" fill="none" stroke="#000000" stroke-width="1.2756" stroke-linecap="round" stroke-linejoin="round" stroke-miterlimit="10" d="
		M130.2,122.3c0,0-1.2-31.4,4.6-48.8c3.9-11.9,9.2-21.7,21.5-21.7c11,0,17.9,9,22.2,20c6.9,17.6,7.2,40.4,7.2,40.4"/>
	
		<path id="XMLID_34_" fill="none" stroke="#000000" stroke-width="1.2756" stroke-linecap="round" stroke-linejoin="round" stroke-miterlimit="10" d="
		M133.6,123c0,0-1.7-34,4.7-50.7c3.9-10.2,8.5-16.7,18-17.1c8.9-0.4,14.8,7.5,18.7,17c7,16.8,7.8,40.1,7.8,40.1"/>
	
		<path id="XMLID_33_" fill="none" stroke="#000000" stroke-width="1.2756" stroke-linecap="round" stroke-linejoin="round" stroke-miterlimit="10" d="
		M106.7,71.4c3.4-15.8,10.3-29.8,26.2-29.8c7.2,0,13,4.3,17.7,11.1"/>
	
		<path id="XMLID_32_" fill="none" stroke="#000000" stroke-width="1.2756" stroke-linecap="round" stroke-linejoin="round" stroke-miterlimit="10" d="
		M110.5,71c3.8-13.4,8.8-26,22.4-26c5.2,0,10.8,3.7,14.3,9.1"/>
	
		<line id="XMLID_31_" fill="none" stroke="#000000" stroke-width="1.2756" stroke-linecap="round" stroke-linejoin="round" stroke-miterlimit="10" x1="168.4" y1="61.3" x2="141.2" y2="65.8"/>
	
		<polyline id="XMLID_30_" fill="none" stroke="#000000" stroke-width="1.2756" stroke-linecap="round" stroke-linejoin="round" stroke-miterlimit="10" points="
		175.2,64.4 178.8,59.3 172.7,60.3 	"/>
	
		<polyline id="XMLID_29_" fill="none" stroke="#000000" stroke-width="1.2756" stroke-linecap="round" stroke-linejoin="round" stroke-miterlimit="10" points="
		173.4,69.6 171.8,69.3 172.7,68.1 	"/>
	
		<polyline id="XMLID_28_" fill="none" stroke="#000000" stroke-width="1.2756" stroke-linecap="round" stroke-linejoin="round" stroke-miterlimit="10" points="
		137.5,66.4 68.8,78.1 62.3,224.2 96.5,243.1 222.6,214.2 213.1,78.1 178.4,70.7 	"/>
	
		<line id="XMLID_27_" fill="none" stroke="#000000" stroke-width="1.2756" stroke-linecap="round" stroke-linejoin="round" stroke-miterlimit="10" x1="182" y1="83.4" x2="213.1" y2="78.1"/>
	
		<line id="XMLID_26_" fill="none" stroke="#000000" stroke-width="1.2756" stroke-linecap="round" stroke-linejoin="round" stroke-miterlimit="10" x1="134.4" y1="91.2" x2="178.5" y2="83.9"/>
	
		<polyline id="XMLID_25_" fill="none" stroke="#000000" stroke-width="1.2756" stroke-linecap="round" stroke-linejoin="round" stroke-miterlimit="10" points="
		68.8,78.1 99.4,84.7 102.2,96.6 131.3,91.7 	"/>
	
		<line id="XMLID_24_" fill="none" stroke="#000000" stroke-width="1.2756" stroke-linecap="round" stroke-linejoin="round" stroke-miterlimit="10" x1="96.5" y1="243.1" x2="102.2" y2="96.6"/>
	
		<polyline id="XMLID_23_" fill="none" stroke="#000000" stroke-width="1.2756" stroke-linecap="round" stroke-linejoin="round" stroke-miterlimit="10" stroke-dasharray="4.3601" points="
		62.3,224.2 91.9,216.3 96.5,243.1 	"/>
	
		<line id="XMLID_22_" fill="none" stroke="#000000" stroke-width="1.2756" stroke-linecap="round" stroke-linejoin="round" stroke-miterlimit="10" stroke-dasharray="4.3601" x1="91.9" y1="216.3" x2="99.4" y2="84.7"/>
	
		<line id="XMLID_21_" fill="none" stroke="#000000" stroke-width="1.2756" stroke-linecap="round" stroke-linejoin="round" stroke-miterlimit="10" stroke-dasharray="4.3601" x1="171.9" y1="69.3" x2="171.9" y2="85"/>
	
		<line id="XMLID_20_" fill="none" stroke="#000000" stroke-width="1.2756" stroke-linecap="round" stroke-linejoin="round" stroke-miterlimit="10" x1="178.7" y1="59.3" x2="178.7" y2="70.5"/>
	
		<polyline id="XMLID_19_" fill="none" stroke="#000000" stroke-width="1.2756" stroke-linecap="round" stroke-linejoin="round" stroke-miterlimit="10" points="
		182.8,87.1 210.2,82.3 218.2,211.3 100.9,237.4 106.3,99.8 130.9,95.9 	"/>
	
		<line id="XMLID_18_" fill="none" stroke="#000000" stroke-width="1.2756" stroke-linecap="round" stroke-linejoin="round" stroke-miterlimit="10" x1="134" y1="95.4" x2="179.5" y2="87.5"/>
	
		<path id="XMLID_17_" fill="none" stroke="#000000" stroke-width="1.2756" stroke-linecap="round" stroke-linejoin="round" stroke-miterlimit="10" d="
		M149.1,57.2c0,0,2.1,2.9,3,6.8"/>
	
		<path id="XMLID_16_" fill="none" stroke="#000000" stroke-width="1.2756" stroke-linecap="round" stroke-linejoin="round" stroke-miterlimit="10" d="
		M152.1,55.9c0,0,2.1,3.2,3,7.1"/>
</g>
</svg>
