<?xml version="1.0" encoding="UTF-8"?>
<svg width="284pt" version="1.1" xmlns="http://www.w3.org/2000/svg" height="284pt" viewBox="0 0 284 284" xmlns:xlink="http://www.w3.org/1999/xlink">
 <defs>
  <clipPath id="Clip0">
   <path d="M0 0 L893 0 L893 451.75 L0 451.75 L0 0 Z" transform="translate(-639.017, -171.46)"/>
  </clipPath>
  <clipPath id="Clip1">
   <path d="M0 0 L893 0 L893 451.75 L0 451.75 L0 0 Z" transform="translate(-639.017, -171.46)"/>
  </clipPath>
 </defs>
 <g id="Background">
  <g id="Layer_1" clip-path="url(#Clip0)">
   <g id="XMLID_15_" clip-path="url(#Clip1)">
    <path style="fill:none;stroke:#000000; stroke-width:1.89213; stroke-linecap:round; stroke-linejoin:round; stroke-dasharray:none;" id=" XMLID_28_" d="M0 1.92881 L0 231.16 L41.9677 250.893 L219.329 228.786 L219.329 0 L42.4125 22.849 L47.7512 9.64404 L0 1.92881 Z" transform="translate(33.7076, 28.4502)"/>
    <path style="fill:none;stroke:#000000; stroke-width:1.89213; stroke-linecap:round; stroke-linejoin:round; stroke-dasharray:none;" id=" XMLID_27_" d="M219.329 22.2555 L173.061 12.018 L176.768 0 L0 24.1843 " transform="translate(33.7076, 6.19471)"/>
    <path style="fill:none;stroke:#000000; stroke-width:1.89213; stroke-linecap:round; stroke-linejoin:round; stroke-dasharray:none;" id=" XMLID_26_" d="M0 0 L0 228.044 " transform="translate(76.1201, 51.2991)"/>
    <path style="fill:none;stroke:#000000; stroke-width:1.89213; stroke-linecap:round; stroke-linejoin:round; stroke-dasharray:4 ; stroke-dashoffset:0;" id=" XMLID_19_" d="M0 0 L0 16.3207 " transform="translate(206.769, 18.2127)"/>
    <path style="fill:none;stroke:#000000; stroke-width:1.89213; stroke-linecap:round; stroke-linejoin:round; stroke-dasharray:none;" id=" XMLID_18_" d="M0 0 L0 12.018 " transform="translate(210.476, 6.19471)"/>
    <path style="fill:none;stroke:#000000; stroke-width:1.89213; stroke-linecap:round; stroke-linejoin:round; stroke-dasharray:none;" id=" XMLID_17_" d="M0 21.2169 L0 236.205 L164.312 215.581 L164.312 0 L0 21.2169 Z" transform="translate(82.6451, 35.8687)"/>
    <path style="fill:none;stroke:#000000; stroke-width:1.89213; stroke-linecap:round; stroke-linejoin:round; stroke-dasharray:none;" id=" XMLID_16_" d="M0 0 L0 12.4631 " transform="translate(81.4587, 38.0942)"/>
   </g>
  </g>
 </g>
</svg>
