<?xml version="1.0" encoding="UTF-8"?>
<svg width="284pt" version="1.1" xmlns="http://www.w3.org/2000/svg" height="284pt" viewBox="0 0 284 284" xmlns:xlink="http://www.w3.org/1999/xlink">
 <defs>
  <clipPath id="Clip0">
   <path d="M0 0 L216.75 0 L216.75 278.999 L0 278.999 L0 0 Z" transform="translate(32.75, 1.53123)"/>
  </clipPath>
  <clipPath id="Clip1">
   <path d="M0 0 L216.75 0 L216.75 278.999 L0 278.999 L0 0 Z" transform="translate(32.75, 1.53123)"/>
  </clipPath>
 </defs>
 <g id="Background">
  <g id="Layer_1" clip-path="url(#Clip0)">
   <g id="XMLID_15_" clip-path="url(#Clip1)">
    <path style="fill:none;stroke:#000000; stroke-width:1.71752; stroke-linecap:round; stroke-linejoin:round; stroke-dasharray:none;" id=" XMLID_24_" d="M0 251.465 L37.209 277.283 L215.03 232.773 L184.023 29.5841 L147.488 18.0194 L150.858 0 L25.0756 35.5009 L0 251.465 Z" transform="translate(33.6099, 2.38889)"/>
    <path style="fill:none;stroke:#000000; stroke-width:1.71752; stroke-linecap:round; stroke-linejoin:round; stroke-dasharray:none;" id=" XMLID_23_" d="M12.1334 241.783 L37.3438 26.4912 L32.086 7.79944 L0 0 " transform="translate(58.6855, 37.8898)"/>
    <path style="fill:none;stroke:#000000; stroke-width:1.71752; stroke-linecap:round; stroke-linejoin:round; stroke-dasharray:none;" id=" XMLID_22_" d="M0 32.408 L121.603 0 " transform="translate(96.0293, 31.973)"/>
    <path style="fill:none;stroke:#000000; stroke-width:1.71752; stroke-linecap:round; stroke-linejoin:round; stroke-dasharray:4 ; stroke-dashoffset:0;" id=" XMLID_21_" d="M0 208.164 L33.4342 198.482 L57.1617 0 " transform="translate(33.6099, 45.6892)"/>
    <path style="fill:none;stroke:#000000; stroke-width:1.71752; stroke-linecap:round; stroke-linejoin:round; stroke-dasharray:4 ; stroke-dashoffset:0;" id=" XMLID_19_" d="M0 0 L3.77483 35.5009 " transform="translate(67.044, 244.171)"/>
    <path style="fill:none;stroke:#000000; stroke-width:1.71752; stroke-linecap:round; stroke-linejoin:round; stroke-dasharray:4 ; stroke-dashoffset:0;" id=" XMLID_18_" d="M0 0 L0 21.6502 " transform="translate(181.098, 20.0049)"/>
    <path style="fill:none;stroke:#000000; stroke-width:1.71752; stroke-linecap:round; stroke-linejoin:round; stroke-dasharray:none;" id=" XMLID_17_" d="M0 0 L0 18.0194 " transform="translate(184.468, 2.79231)"/>
    <path style="fill:none;stroke:#000000; stroke-width:1.71752; stroke-linecap:round; stroke-linejoin:round; stroke-dasharray:none;" id=" XMLID_16_" d="M22.5141 30.3909 L0 232.638 L164.205 192.431 L135.22 0 L22.5141 30.3909 Z" transform="translate(78.5033, 38.5622)"/>
   </g>
  </g>
 </g>
</svg>
