<?xml version="1.0" encoding="UTF-8"?>
<svg width="426pt" version="1.1" xmlns="http://www.w3.org/2000/svg" height="426pt" viewBox="0 0 426 426" xmlns:xlink="http://www.w3.org/1999/xlink">
 <defs>
  <clipPath id="Clip0">
   <path d="M0 0 L419.001 0 L419.001 408.999 L0 408.999 L0 0 Z" transform="translate(2.75, 7.50117)"/>
  </clipPath>
  <clipPath id="Clip1">
   <path d="M0 0 L419.001 0 L419.001 408.999 L0 408.999 L0 0 Z" transform="translate(2.75, 7.50117)"/>
  </clipPath>
 </defs>
 <g id="Background">
  <g id="Layer_1" clip-path="url(#Clip0)">
   <g id="Group1" clip-path="url(#Clip1)">
    <path style="fill:none;stroke:#000000; stroke-width:2.37213; stroke-linecap:round; stroke-linejoin:round; stroke-dasharray:none;" d="M416.629 58.0099 L319.725 0 L98.5774 104.492 L194.551 182.954 L0 99.658 L11.5317 285.029 L194.551 386.547 L194.551 182.954 L416.629 58.0099 C414.025 59.4973 416.629 235.758 416.629 235.758 L349.299 281.869 L194.737 386.547 " transform="translate(3.93628, 28.7674)"/>
    <path style="fill:none;stroke:#000000; stroke-width:2.37213; stroke-linecap:round; stroke-linejoin:round; stroke-dasharray:none;" d="M0 119.552 L91.1376 109.884 L309.868 0 L222.264 14.5025 L0 119.552 Z" transform="translate(4.12227, 8.68703)"/>
    <path style="fill:none;stroke:#000000; stroke-width:2.37213; stroke-linecap:round; stroke-linejoin:round; stroke-dasharray:none;" d="M0 0 L23.0634 7.80903 " transform="translate(119.625, 106.486)"/>
    <path style="fill:none;stroke:#000000; stroke-width:2.37213; stroke-linecap:round; stroke-linejoin:round; stroke-dasharray:none;" d="M0 0 L26.5973 6.87938 " transform="translate(198.115, 68.5562)"/>
    <path style="fill:none;stroke:#000000; stroke-width:2.37213; stroke-linecap:round; stroke-linejoin:round; stroke-dasharray:none;" d="M0 0 L31.9911 7.80903 " transform="translate(258.935, 36.3905)"/>
    <path style="fill:none;stroke:#000000; stroke-width:2.37213; stroke-linecap:round; stroke-linejoin:round; stroke-dasharray:none;" d="M0 0 L10.9737 166.964 L177.253 258.256 L177.253 75.4872 L0 0 Z" transform="translate(12.678, 141.626)"/>
    <path style="fill:none;stroke:#000000; stroke-width:2.37213; stroke-linecap:round; stroke-linejoin:round; stroke-dasharray:none;" d="M204.037 158.412 L0 296.185 L0 114.904 L204.037 0 L204.037 158.412 Z" transform="translate(207.229, 102.023)"/>
   </g>
  </g>
 </g>
</svg>
