<?xml version="1.0" encoding="utf-8"?>
<!-- Generator: Adobe Illustrator 19.0.0, SVG Export Plug-In . SVG Version: 6.00 Build 0)  -->
<!DOCTYPE svg PUBLIC "-//W3C//DTD SVG 1.1//EN" "http://www.w3.org/Graphics/SVG/1.1/DTD/svg11.dtd">
<svg version="1.1" id="Layer_1" xmlns="http://www.w3.org/2000/svg" xmlns:xlink="http://www.w3.org/1999/xlink" x="0px" y="0px"
	 viewBox="0 0 425.2 425.2" enable-background="new 0 0 425.2 425.2" xml:space="preserve">
<g id="XMLID_219_">
	<g id="XMLID_230_">
		<g id="XMLID_245_">
			
				<path id="XMLID_251_" fill="none" stroke="#000000" stroke-width="1.2756" stroke-linecap="round" stroke-linejoin="round" stroke-miterlimit="10" d="
				M227.1,257.1c0,0,18.6-4.2,19-4.2c5.3-1.1,9.4,4.2,10.8,6.1c0.3,0.4,0.8,0.5,1.1,0.2l0.8-0.5c0.6-0.4,1.4,0.1,1.3,0.8l-2.1,13.3
				c-0.1,0.4-0.4,0.7-0.8,0.7L243,273c-0.8,0-1.1-1-0.5-1.5l0.8-0.7c0.3-0.3,0.4-0.8,0.1-1.1c-10.2-12.8-13.6-12.6-13.6-12.6
				c-0.3,0-0.6-0.1-0.9-0.1c-5.7-0.2-9.3,3.5-10.1,5.9c0,0.1-3.3,10.6-3.3,10.6c-0.1,0.4,0.1,0.9,0.5,1l14.1,4.3
				c0.4,0.1,0.9-0.1,1-0.5l5.8-15.9"/>
			
				<line id="XMLID_250_" fill="none" stroke="#000000" stroke-width="1.2756" stroke-linecap="round" stroke-linejoin="round" stroke-miterlimit="10" x1="222" y1="259.1" x2="220.9" y2="263.2"/>
			
				<line id="XMLID_249_" fill="none" stroke="#000000" stroke-width="1.2756" stroke-linecap="round" stroke-linejoin="round" stroke-miterlimit="10" x1="225.5" y1="257.4" x2="224.3" y2="262.7"/>
			
				<line id="XMLID_248_" fill="none" stroke="#000000" stroke-width="1.2756" stroke-linecap="round" stroke-linejoin="round" stroke-miterlimit="10" x1="228.4" y1="257.1" x2="227.5" y2="261.8"/>
			
				<line id="XMLID_247_" fill="none" stroke="#000000" stroke-width="1.2756" stroke-linecap="round" stroke-linejoin="round" stroke-miterlimit="10" x1="231.3" y1="257.7" x2="230.7" y2="261.1"/>
			
				<line id="XMLID_246_" fill="none" stroke="#000000" stroke-width="1.2756" stroke-linecap="round" stroke-linejoin="round" stroke-miterlimit="10" x1="233.8" y1="259.5" x2="233.7" y2="260.7"/>
		</g>
		<g id="XMLID_238_">
			
				<path id="XMLID_244_" fill="none" stroke="#000000" stroke-width="1.2756" stroke-linecap="round" stroke-linejoin="round" stroke-miterlimit="10" d="
				M274.5,290c0,0-8.1,17.2-8.3,17.6c-2.4,4.9-9.1,4.9-11.4,4.7c-0.5,0-0.8,0.3-0.9,0.8l-0.1,1c-0.1,0.7-0.9,1-1.4,0.5l-9.2-9.9
				c-0.3-0.3-0.3-0.8,0-1.1l9.1-10.8c0.5-0.6,1.4-0.3,1.5,0.5l0,1c0,0.4,0.4,0.8,0.8,0.8c16.3-0.2,18.3-2.9,18.3-2.9
				c0.2-0.2,0.4-0.4,0.6-0.6c3.7-4.4,3-9.5,1.6-11.6c0-0.1-6.3-9.1-6.3-9.1c-0.3-0.4-0.8-0.5-1.1-0.2l-12.1,8.4
				c-0.4,0.3-0.5,0.7-0.2,1.1l9,14.3"/>
			
				<line id="XMLID_243_" fill="none" stroke="#000000" stroke-width="1.2756" stroke-linecap="round" stroke-linejoin="round" stroke-miterlimit="10" x1="276.1" y1="284.8" x2="273.6" y2="281.4"/>
			
				<line id="XMLID_242_" fill="none" stroke="#000000" stroke-width="1.2756" stroke-linecap="round" stroke-linejoin="round" stroke-miterlimit="10" x1="275.3" y1="288.5" x2="271.9" y2="284.3"/>
			
				<line id="XMLID_241_" fill="none" stroke="#000000" stroke-width="1.2756" stroke-linecap="round" stroke-linejoin="round" stroke-miterlimit="10" x1="273.8" y1="291" x2="270.6" y2="287.4"/>
			
				<line id="XMLID_240_" fill="none" stroke="#000000" stroke-width="1.2756" stroke-linecap="round" stroke-linejoin="round" stroke-miterlimit="10" x1="271.5" y1="292.9" x2="269.2" y2="290.3"/>
			
				<line id="XMLID_239_" fill="none" stroke="#000000" stroke-width="1.2756" stroke-linecap="round" stroke-linejoin="round" stroke-miterlimit="10" x1="268.5" y1="293.8" x2="267.7" y2="293"/>
		</g>
		<g id="XMLID_231_">
			
				<path id="XMLID_237_" fill="none" stroke="#000000" stroke-width="1.2756" stroke-linecap="round" stroke-linejoin="round" stroke-miterlimit="10" d="
				M221.3,314.1c0,0-12.1-14.7-12.3-15c-3.4-4.2-0.5-10.3,0.6-12.4c0.2-0.4,0.1-0.9-0.3-1.1l-0.8-0.5c-0.6-0.4-0.5-1.3,0.2-1.5
				l12.9-4.1c0.4-0.1,0.8,0.1,1,0.4l5.9,12.8c0.3,0.7-0.4,1.4-1.1,1.1l-0.9-0.4c-0.4-0.2-0.9,0-1.1,0.4c-6.8,14.8-5.2,17.8-5.2,17.8
				c0.1,0.3,0.2,0.6,0.3,0.8c2.4,5.2,7.3,6.8,9.8,6.4c0.1,0,10.9-1.8,10.9-1.8c0.4-0.1,0.8-0.5,0.7-1l-2.5-14.5
				c-0.1-0.4-0.5-0.7-0.9-0.7l-16.8,2"/>
			
				<line id="XMLID_236_" fill="none" stroke="#000000" stroke-width="1.2756" stroke-linecap="round" stroke-linejoin="round" stroke-miterlimit="10" x1="225.3" y1="317.8" x2="229.5" y2="316.9"/>
			
				<line id="XMLID_235_" fill="none" stroke="#000000" stroke-width="1.2756" stroke-linecap="round" stroke-linejoin="round" stroke-miterlimit="10" x1="222.3" y1="315.4" x2="227.6" y2="314.1"/>
			
				<line id="XMLID_234_" fill="none" stroke="#000000" stroke-width="1.2756" stroke-linecap="round" stroke-linejoin="round" stroke-miterlimit="10" x1="220.7" y1="313" x2="225.3" y2="311.6"/>
			
				<line id="XMLID_233_" fill="none" stroke="#000000" stroke-width="1.2756" stroke-linecap="round" stroke-linejoin="round" stroke-miterlimit="10" x1="219.9" y1="310.1" x2="223.3" y2="309.1"/>
			
				<line id="XMLID_232_" fill="none" stroke="#000000" stroke-width="1.2756" stroke-linecap="round" stroke-linejoin="round" stroke-miterlimit="10" x1="220.4" y1="307" x2="221.5" y2="306.6"/>
		</g>
	</g>
	<g id="XMLID_220_">
		
			<polyline id="XMLID_229_" fill="none" stroke="#000000" stroke-width="1.2756" stroke-linecap="round" stroke-linejoin="round" stroke-miterlimit="10" stroke-dasharray="4.3601" points="
			312.4,218.3 269.1,176.7 135.4,200 162.4,250.3 		"/>
		
			<line id="XMLID_228_" fill="none" stroke="#000000" stroke-width="1.2756" stroke-linecap="round" stroke-linejoin="round" stroke-miterlimit="10" x1="162.4" y1="250.3" x2="312.4" y2="218.3"/>
		
			<path id="XMLID_227_" fill="none" stroke="#000000" stroke-width="1.2756" stroke-linecap="round" stroke-linejoin="round" stroke-miterlimit="10" d="
			M122.8,101l-1.2-8.4c-0.6-4.6,2.6-8.7,7.2-9.3l123.5-14.4c4.4-0.5,8.4,2.5,9.1,6.9l1.1,6.9"/>
		
			<polyline id="XMLID_226_" fill="none" stroke="#000000" stroke-width="1.2756" stroke-linecap="round" stroke-linejoin="round" stroke-miterlimit="10" points="
			122.8,101 135.4,200 93.8,167.7 111.1,213.5 162.4,250.3 170.1,356.3 143.4,305.3 139.7,234 		"/>
		
			<line id="XMLID_225_" fill="none" stroke="#000000" stroke-width="1.2756" stroke-linecap="round" stroke-linejoin="round" stroke-miterlimit="10" stroke-dasharray="4.3601" x1="262.4" y1="82.7" x2="122.8" y2="101"/>
		
			<polyline id="XMLID_224_" fill="none" stroke="#000000" stroke-width="1.2756" stroke-linecap="round" stroke-linejoin="round" stroke-miterlimit="10" points="
			170.1,356.3 305.8,323.3 312.4,218.3 331.4,157.3 297.4,129.3 269.1,176.7 262.4,82.7 		"/>
		
			<line id="XMLID_223_" fill="none" stroke="#000000" stroke-width="1.2756" stroke-linecap="round" stroke-linejoin="round" stroke-miterlimit="10" stroke-dasharray="4.3601" x1="269.1" y1="176.7" x2="269.1" y2="227.6"/>
		
			<polygon id="XMLID_222_" fill="none" stroke="#000000" stroke-width="1.2756" stroke-linecap="round" stroke-linejoin="round" stroke-miterlimit="10" points="
			167.1,254.2 174.6,350.7 302.1,320 307.8,224.5 		"/>
		
			<polyline id="XMLID_221_" fill="none" stroke="#000000" stroke-width="1.2756" stroke-linecap="round" stroke-linejoin="round" stroke-miterlimit="10" points="
			143.6,237.5 147.2,304.3 165.1,337.3 158.6,253.3 150.7,241.9 		"/>
	</g>
</g>
</svg>
